<svg xmlns="http://www.w3.org/2000/svg" width="960" height="720" viewBox="0 0 960 720" fill="none">
  <rect width="960" height="720" fill="#11151D"/>
  <rect x="550" y="0" width="410" height="720" fill="url(#bg)"/>
  <rect x="560" y="0" width="390" height="370" rx="0" fill="#1E1E28" fill-opacity="0.96"/>
  <path d="M560 0H950V352C950 362 941.941 370 932 370H578C568.059 370 560 361.941 560 352V0Z" fill="#1E1E28" fill-opacity="0.96"/>
  <rect x="560.5" y="0.5" width="389" height="369" rx="19.5" stroke="rgba(255,255,255,0.06)"/>
  <text x="592" y="52" fill="#FFFFFF" font-family="sans-serif" font-size="26" font-weight="700">Sound Control</text>

  <rect x="592" y="84" width="326" height="112" rx="16" fill="rgba(255,255,255,0.04)"/>
  <rect x="592.5" y="84.5" width="325" height="111" rx="15.5" stroke="rgba(255,255,255,0.03)"/>
  <text x="614" y="117" fill="#FFFFFF" font-family="sans-serif" font-size="20" font-weight="700">Output</text>
  <rect x="841" y="97" width="55" height="26" rx="13" fill="#6F9A94" fill-opacity="0.16"/>
  <text x="854" y="114" fill="#9DC1BC" font-family="sans-serif" font-size="12" font-weight="700">Live</text>
  <rect x="614" y="136" width="282" height="36" rx="12" fill="rgba(255,255,255,0.05)"/>
  <rect x="614.5" y="136.5" width="281" height="35" rx="11.5" stroke="rgba(255,255,255,0.05)"/>
  <text x="628" y="159" fill="#FFFFFF" font-family="sans-serif" font-size="14">USB DAC Analog Stereo</text>
  <rect x="614" y="182" width="210" height="10" rx="5" fill="rgba(255,255,255,0.08)"/>
  <rect x="614" y="182" width="138" height="10" rx="5" fill="#5F7EA8"/>
  <circle cx="752" cy="187" r="9" fill="#F5F7FF"/>
  <text x="834" y="192" fill="#FFFFFF" font-family="sans-serif" font-size="14" font-weight="700">65%</text>
  <rect x="880" y="174" width="38" height="38" rx="12" fill="rgba(255,255,255,0.05)"/>

  <rect x="592" y="212" width="326" height="112" rx="16" fill="rgba(255,255,255,0.04)"/>
  <rect x="592.5" y="212.5" width="325" height="111" rx="15.5" stroke="rgba(255,255,255,0.03)"/>
  <text x="614" y="245" fill="#FFFFFF" font-family="sans-serif" font-size="20" font-weight="700">Input</text>
  <rect x="827" y="225" width="69" height="26" rx="13" fill="rgba(176,102,102,0.14)"/>
  <text x="839" y="242" fill="#D4A1A1" font-family="sans-serif" font-size="12" font-weight="700">Muted</text>
  <rect x="614" y="264" width="282" height="36" rx="12" fill="rgba(255,255,255,0.05)"/>
  <rect x="614.5" y="264.5" width="281" height="35" rx="11.5" stroke="rgba(255,255,255,0.05)"/>
  <text x="628" y="287" fill="#FFFFFF" font-family="sans-serif" font-size="14">USB Microphone Mono</text>
  <rect x="614" y="310" width="210" height="10" rx="5" fill="rgba(255,255,255,0.08)"/>
  <rect x="614" y="310" width="84" height="10" rx="5" fill="#5F7EA8"/>
  <circle cx="698" cy="315" r="9" fill="#F5F7FF"/>
  <text x="834" y="320" fill="#FFFFFF" font-family="sans-serif" font-size="14" font-weight="700">40%</text>
  <rect x="880" y="302" width="38" height="38" rx="12" fill="rgba(255,255,255,0.05)"/>

  <rect x="790" y="336" width="128" height="38" rx="12" fill="#5F7EA8"/>
  <text x="811" y="360" fill="#FFFFFF" font-family="sans-serif" font-size="14" font-weight="600">Open pavucontrol</text>

  <defs>
    <linearGradient id="bg" x1="550" y1="0" x2="960" y2="720" gradientUnits="userSpaceOnUse">
      <stop stop-color="#1D2330"/>
      <stop offset="1" stop-color="#0E1218"/>
    </linearGradient>
  </defs>
</svg>
